<?xml version="1.0" standalone="no"?>
<!DOCTYPE svg PUBLIC "-//W3C//DTD SVG 20010904//EN"
 "http://www.w3.org/TR/2001/REC-SVG-20010904/DTD/svg10.dtd">
<svg version="1.0" xmlns="http://www.w3.org/2000/svg"
 width="332.000000pt" height="335.000000pt" viewBox="0 0 332.000000 335.000000"
 preserveAspectRatio="xMidYMid meet">

<g transform="translate(0.000000,335.000000) scale(0.100000,-0.100000)"
fill="#000000" stroke="none">
<path d="M342 3070 c-182 -31 -335 -60 -339 -63 -10 -11 -1 -10 319 42 166 27
316 51 332 53 16 2 31 9 34 16 2 6 0 11 -5 11 -4 -1 -158 -27 -341 -59z"/>
<path d="M1295 2934 c-219 -70 -206 -63 -251 -132 -22 -34 -49 -72 -60 -84
-22 -25 -62 -119 -75 -176 -11 -48 7 -226 28 -275 16 -36 15 -39 -4 -66 -17
-23 -20 -35 -13 -70 4 -24 12 -46 17 -50 6 -3 18 -22 28 -41 25 -51 45 -70 72
-70 23 0 32 23 13 35 -6 4 -8 11 -5 16 4 5 -3 23 -15 39 -12 16 -19 34 -16 38
3 5 2 32 -3 61 -9 58 -4 98 13 104 7 3 12 -10 13 -37 1 -34 0 -37 -7 -16 -8
23 -8 23 -9 -9 -1 -26 2 -32 14 -27 8 3 15 1 15 -4 0 -6 -4 -10 -8 -10 -27 0
36 -219 78 -271 27 -34 34 -54 45 -137 8 -53 14 -137 13 -187 0 -120 -1 -114
27 -127 21 -9 23 -13 11 -20 -8 -5 -13 -15 -10 -23 4 -9 0 -15 -7 -15 -8 -1 0
-12 16 -25 l30 -25 -25 0 c-34 -1 -91 -32 -82 -46 10 -15 66 -29 57 -13 -5 7
-1 10 11 7 10 -2 21 -14 24 -27 3 -13 15 -30 28 -39 20 -13 22 -13 22 2 0 9
-4 16 -10 16 -5 0 -10 7 -10 15 0 11 12 15 49 15 28 0 53 5 57 11 5 8 29 10
76 6 38 -3 66 -2 63 2 -2 5 -36 11 -75 15 -95 10 -96 22 -2 19 53 -2 71 0 57
7 -17 7 -16 9 11 9 39 1 57 31 19 31 -13 0 -26 4 -29 8 -3 5 44 14 104 20 106
11 205 40 168 49 -10 3 -18 10 -18 18 0 12 -29 25 -56 25 -7 0 -15 -11 -18
-25 -4 -16 -13 -25 -27 -25 -11 0 -18 -4 -15 -9 3 -5 -6 -12 -21 -16 -26 -6
-44 7 -39 29 2 6 1 8 -1 4 -18 -32 -36 30 -42 149 -1 7 -10 21 -22 31 -24 24
-18 67 14 84 11 6 31 23 45 39 13 16 29 29 35 29 16 0 93 67 86 74 -3 3 -22 1
-42 -5 -21 -5 -45 -8 -55 -4 -19 6 -82 86 -82 103 0 7 15 18 34 26 43 18 63
51 40 64 -9 5 -14 14 -10 20 9 15 76 9 86 -7 17 -28 44 -6 60 50 15 48 15 60
4 80 -18 33 -17 49 3 49 15 0 15 1 -1 13 -16 11 -13 14 22 30 55 24 74 49 93
124 l16 67 8 -69 c4 -38 9 -74 12 -82 6 -16 20 -17 26 0 2 6 2 2 0 -10 -4 -24
11 -31 23 -11 5 8 10 6 15 -8 10 -25 11 -62 1 -48 -7 12 -46 34 -58 34 -3 0
-4 -16 -1 -36 3 -19 2 -47 -4 -61 -10 -27 3 -55 15 -34 4 6 12 11 18 11 6 0 6
-6 -2 -15 -11 -13 -10 -14 4 -9 9 3 16 12 16 19 0 21 20 68 26 62 7 -6 -16
-87 -29 -104 -5 -7 -20 -13 -33 -13 -17 0 -28 -8 -35 -27 -28 -72 -22 -121 28
-253 39 -104 45 -112 103 -140 101 -50 158 -73 167 -67 10 6 217 -57 287 -87
21 -10 40 -15 43 -12 3 2 7 90 9 194 l5 190 -43 20 c-24 11 -81 35 -128 53
-47 18 -87 36 -89 42 -2 5 -21 28 -42 51 -34 36 -53 87 -31 86 4 -1 79 -25
167 -55 87 -29 162 -52 166 -50 3 3 9 102 13 222 3 120 9 260 12 311 l7 92
-45 0 c-24 0 -143 -9 -264 -20 -120 -11 -232 -21 -248 -23 -24 -2 -30 3 -38
28 -23 79 -33 101 -66 150 -61 89 -165 145 -307 166 -141 20 -145 20 -260 -17z
m335 -248 c31 -9 55 -10 78 -4 47 13 76 -8 92 -69 7 -26 18 -54 23 -61 32 -41
-62 -30 -102 12 -14 15 -29 22 -39 19 -12 -5 -14 -1 -10 20 5 25 3 27 -33 27
-38 0 -60 14 -37 23 7 3 3 6 -9 6 -27 1 -40 20 -22 32 8 5 14 9 14 9 0 0 20
-6 45 -14z m-466 -67 c-16 -32 -11 -97 5 -70 6 10 10 9 14 -3 4 -10 -5 -23
-26 -37 -18 -12 -45 -35 -62 -50 -33 -30 -96 -60 -78 -37 14 18 23 58 13 58
-4 0 -11 16 -14 35 -6 30 -3 41 20 68 15 18 31 31 36 30 4 -2 8 1 8 6 0 11 46
29 78 30 22 1 22 0 6 -30z m459 -16 c-7 -2 -21 -2 -30 0 -10 3 -4 5 12 5 17 0
24 -2 18 -5z m117 -103 c0 -5 -2 -10 -4 -10 -3 0 -8 5 -11 10 -3 6 -1 10 4 10
6 0 11 -4 11 -10z m73 -40 c5 -18 -17 -60 -26 -50 -2 3 -7 27 -11 54 -6 48 -6
49 13 32 10 -10 21 -26 24 -36z m-83 0 c0 -5 6 -7 14 -4 11 4 18 -7 26 -37 8
-30 14 -38 20 -29 18 29 22 0 6 -35 -15 -31 -66 -75 -88 -75 -13 0 -1 53 15
62 9 4 19 25 23 45 6 30 3 39 -15 54 -23 19 -27 29 -11 29 6 0 10 -4 10 -10z
m-249 -108 c6 -20 18 -45 26 -54 8 -9 12 -21 8 -27 -3 -6 0 -9 8 -5 8 3 20 -2
27 -11 11 -13 9 -15 -11 -14 -13 1 -33 -2 -43 -6 -16 -7 -18 -5 -13 8 4 10 2
17 -5 17 -7 0 -6 5 2 15 10 12 10 15 -1 16 -10 0 -10 2 -2 6 9 3 6 13 -9 34
-24 32 -33 85 -11 68 6 -6 17 -27 24 -47z m-403 21 c-1 -26 9 -95 18 -118 6
-17 4 -17 -14 3 -22 25 -39 102 -27 121 10 17 24 13 23 -6z m-54 -39 c9 -24 7
-36 -6 -32 -13 5 -22 48 -9 48 5 0 12 -7 15 -16z m946 7 c0 -6 -9 -9 -19 -8
-11 0 -17 5 -15 9 7 11 34 10 34 -1z m-847 -88 c-5 -12 -7 -12 -14 -1 -13 20
-11 28 5 22 8 -3 12 -12 9 -21z m-21 -57 l21 -15 -24 2 c-28 1 -48 23 -49 52
0 18 1 18 15 -2 9 -12 25 -29 37 -37z m489 -83 c12 -15 12 -16 -4 -10 -10 4
-26 7 -35 7 -15 0 -15 2 -2 10 21 13 25 13 41 -7z m469 -53 c0 -5 -3 -10 -7
-10 -5 0 -19 -3 -33 -6 l-25 -6 25 15 c31 18 40 20 40 7z m-1050 -40 c0 -5 -4
-10 -10 -10 -5 0 -10 5 -10 10 0 6 5 10 10 10 6 0 10 -4 10 -10z m1039 -45
c51 -36 28 -31 -29 7 -27 18 -46 36 -43 41 3 4 12 1 22 -8 9 -9 31 -27 50 -40z
m191 -30 c14 -4 39 -13 55 -20 17 -7 62 -25 100 -40 78 -32 80 -33 73 -40 -3
-3 -31 6 -63 20 -32 14 -85 35 -119 47 -61 21 -146 74 -146 91 0 5 17 -5 38
-21 20 -16 48 -33 62 -37z m-264 16 c-9 -14 31 -43 60 -43 22 0 24 -2 11 -10
-19 -10 -47 2 -78 33 -23 23 -24 29 -3 29 8 0 13 -4 10 -9z m144 -181 c0 -5
-4 -10 -9 -10 -6 0 -13 5 -16 10 -3 6 1 10 9 10 9 0 16 -4 16 -10z m350 -186
c0 -3 -13 4 -30 16 -16 12 -30 24 -30 26 0 3 14 -4 30 -16 17 -12 30 -24 30
-26z"/>
<path d="M2690 2470 c0 -19 -4 -181 -10 -360 -15 -526 -16 -643 -5 -647 6 -1
11 23 12 60 2 34 9 206 17 382 14 321 12 572 -5 590 -5 5 -9 -5 -9 -25z"/>
<path d="M3062 2089 c-26 -10 -39 -36 -25 -50 5 -5 66 -32 134 -60 68 -28 130
-53 137 -56 8 -4 12 8 12 40 0 44 0 44 -52 64 -29 11 -82 32 -118 46 -47 18
-71 22 -88 16z"/>
<path d="M119 1369 c13 -11 27 -17 30 -13 7 7 -28 34 -43 34 -6 -1 0 -10 13
-21z"/>
<path d="M100 1341 c0 -13 9 -25 23 -30 31 -12 32 -7 3 24 -25 27 -26 27 -26
6z"/>
<path d="M650 1240 c0 -5 5 -10 10 -10 6 0 10 5 10 10 0 6 -4 10 -10 10 -5 0
-10 -4 -10 -10z"/>
<path d="M1290 1150 c0 -5 5 -10 10 -10 6 0 10 5 10 10 0 6 -4 10 -10 10 -5 0
-10 -4 -10 -10z"/>
<path d="M491 1134 c0 -11 3 -14 6 -6 3 7 2 16 -1 19 -3 4 -6 -2 -5 -13z"/>
<path d="M1256 1131 c-10 -11 -25 -17 -37 -14 -11 3 -19 0 -19 -7 0 -7 -6 -10
-14 -7 -19 8 -200 -20 -258 -39 -36 -12 -56 -13 -80 -5 -48 15 -187 33 -203
27 -8 -3 -17 -1 -20 4 -11 18 -44 10 -60 -14 -11 -16 -30 -27 -54 -31 -56 -9
-76 -49 -74 -144 1 -41 7 -79 13 -85 15 -15 12 -33 -6 -40 -23 -9 -87 65 -127
147 -14 29 -27 27 -27 -5 0 -11 -5 -16 -10 -13 -6 3 -14 -4 -19 -17 -16 -38
-12 -4 4 42 18 52 18 50 1 50 -18 0 -66 -59 -66 -81 0 -10 -4 -20 -9 -23 -4
-3 -11 -26 -14 -51 -4 -24 -14 -61 -22 -82 -13 -31 -18 -35 -26 -23 -9 12 -10
12 -5 -3 3 -10 -7 -62 -23 -115 -56 -183 -56 -188 -43 -355 7 -84 15 -164 18
-180 7 -30 34 -36 54 -12 6 8 15 14 18 13 4 -1 21 5 37 14 17 9 74 39 128 67
93 48 175 100 224 144 18 16 20 22 9 32 -7 7 -24 15 -37 18 -23 4 -22 4 4 6
16 0 27 7 27 16 0 8 6 12 14 9 8 -3 12 -12 10 -19 -3 -7 3 -16 13 -19 18 -6
90 -91 110 -131 6 -11 19 -62 28 -112 15 -75 21 -93 35 -93 11 0 24 15 34 38
l16 37 -6 -38 -6 -37 236 0 c234 0 236 0 236 21 0 47 -24 101 -48 110 -15 6
-22 15 -18 24 3 8 -2 18 -10 23 -17 9 1 22 126 90 l56 30 26 -22 c15 -11 43
-32 63 -46 20 -14 42 -30 48 -36 7 -5 41 -30 77 -54 36 -24 67 -46 70 -50 3
-4 13 -10 24 -13 15 -6 17 -14 12 -42 l-7 -35 78 0 c66 1 75 3 58 13 -11 7
-63 44 -115 82 -109 81 -118 87 -222 157 -42 28 -75 55 -72 60 6 9 245 128
257 128 5 0 15 7 23 15 21 21 40 19 23 -2 -13 -15 -12 -16 9 -11 12 4 22 2 22
-3 0 -5 -8 -9 -17 -10 -14 0 -13 -2 5 -9 33 -14 27 -22 -13 -19 -47 5 -65 -14
-40 -41 10 -11 13 -20 7 -20 -26 0 -28 3 -31 43 -1 16 -6 17 -33 12 -18 -4
-37 -11 -43 -17 -6 -6 -4 -7 6 -3 21 8 28 -3 31 -44 1 -17 6 -31 11 -31 4 0 5
-4 2 -10 -3 -5 -15 -10 -26 -10 -21 0 -27 -34 -7 -46 8 -5 9 -2 5 10 -5 12 -3
16 5 13 14 -5 14 -9 3 -42 -6 -18 -5 -18 5 -2 12 18 36 25 24 6 -4 -7 1 -10
12 -7 11 2 19 10 20 18 1 24 25 80 34 80 5 0 2 -14 -7 -31 -8 -16 -12 -33 -9
-36 3 -4 6 -2 6 4 0 6 12 19 28 29 26 17 27 17 13 -2 -8 -10 -28 -34 -45 -52
-24 -25 -27 -35 -18 -44 10 -10 17 -10 32 0 45 28 120 -1 79 -30 -11 -8 -10
-9 4 -4 10 3 21 6 23 6 2 0 4 7 4 15 0 9 11 21 25 27 29 13 32 34 9 67 -16 23
-16 23 6 11 30 -16 33 -9 15 33 -8 20 -12 43 -9 51 3 9 1 16 -5 16 -6 0 -12
-10 -12 -22 -1 -16 -3 -18 -6 -6 -2 9 3 28 11 41 9 13 13 27 9 31 -4 4 -1 11
7 17 13 8 12 12 -5 25 -11 8 -19 19 -18 24 2 5 -4 7 -12 3 -13 -5 -13 -7 2
-19 15 -11 16 -13 2 -14 -8 0 -24 8 -35 19 -15 14 -25 16 -38 9 -15 -8 -38 -4
-25 5 2 1 43 29 91 61 84 56 235 192 225 203 -3 3 -39 -24 -80 -60 -40 -35
-96 -77 -123 -92 -27 -15 -87 -50 -134 -77 -47 -27 -92 -53 -100 -58 -49 -28
-237 -120 -245 -120 -6 0 -28 16 -50 35 -22 19 -43 35 -47 35 -29 1 -291 247
-284 267 3 7 -2 13 -11 13 -12 0 -13 3 -4 14 7 8 13 31 14 50 3 59 16 41 19
-26 2 -38 7 -61 13 -58 6 3 10 16 10 28 1 32 31 49 38 22 9 -35 29 -24 21 12
-11 54 -34 80 -61 73 -33 -8 -20 13 15 26 l27 11 -24 12 -23 13 31 6 c18 4 31
13 31 22 0 8 6 15 13 15 6 0 4 5 -5 11 -29 17 -20 29 21 29 44 0 68 19 48 39
-9 9 -9 14 3 21 24 15 36 12 48 -12 11 -23 11 -23 11 4 1 15 11 34 25 45 15
12 26 33 30 61 7 48 6 49 -18 23z m-748 -378 c-2 -21 2 -29 16 -31 41 -8 59
-52 21 -52 -7 0 -15 -5 -17 -12 -6 -18 -67 53 -68 79 0 20 22 42 43 43 5 0 7
-12 5 -27z m462 -31 c0 -12 -3 -12 -15 -2 -8 7 -15 13 -15 15 0 1 7 2 15 2 8
0 15 -7 15 -15z m-40 -77 c0 -5 -5 -3 -10 5 -5 8 -10 20 -10 25 0 6 5 3 10 -5
5 -8 10 -19 10 -25z m-379 -25 c10 -6 19 -17 19 -25 0 -23 -16 -18 -34 10 -18
27 -15 30 15 15z m409 2 c0 -4 51 -48 113 -97 61 -49 114 -92 117 -96 3 -3 25
-20 50 -37 54 -38 90 -68 90 -76 0 -8 -138 -73 -172 -81 -31 -8 -39 8 -12 23
10 6 13 12 6 16 -5 3 -8 15 -5 26 3 12 -1 22 -11 26 -9 3 -13 10 -10 15 3 5 0
9 -6 9 -6 0 -10 8 -9 18 3 30 -1 35 -16 22 -12 -10 -15 -9 -16 6 0 16 -2 15
-10 -4 -5 -13 -7 -28 -3 -33 3 -5 0 -9 -6 -9 -6 0 -8 15 -4 42 6 33 4 44 -11
55 -14 10 -15 13 -4 13 8 0 15 10 16 21 1 12 -1 19 -4 15 -6 -6 -43 37 -43 50
0 5 -17 25 -37 46 -20 21 -32 38 -25 38 7 0 12 -3 12 -8z m-440 -108 c0 -8 -4
-12 -10 -9 -5 3 -10 10 -10 16 0 5 5 9 10 9 6 0 10 -7 10 -16z m490 -129 c0
-14 -4 -25 -9 -25 -4 0 -6 11 -3 25 2 14 6 25 8 25 2 0 4 -11 4 -25z m-40 -11
c0 -8 -4 -12 -10 -9 -5 3 -10 10 -10 16 0 5 5 9 10 9 6 0 10 -7 10 -16z m-344
-31 c-7 -7 -26 7 -26 19 0 6 6 6 15 -2 9 -7 13 -15 11 -17z m1162 0 c-2 -9
-10 -19 -18 -21 -13 -4 -13 -3 -2 11 12 13 10 16 -15 20 -26 4 -26 4 5 6 26 1
33 -3 30 -16z m-148 -3 c0 -5 -2 -10 -4 -10 -3 0 -8 5 -11 10 -3 6 -1 10 4 10
6 0 11 -4 11 -10z m-990 -55 c0 -5 -5 -3 -10 5 -5 8 -10 20 -10 25 0 6 5 3 10
-5 5 -8 10 -19 10 -25z m157 -27 c-3 -8 -6 -5 -6 6 -1 11 2 17 5 13 3 -3 4
-12 1 -19z m316 -181 c3 -8 1 -20 -4 -28 -6 -10 -9 -7 -9 14 0 29 5 35 13 14z"/>
<path d="M1284 1115 c-7 -17 4 -37 17 -30 12 8 12 45 -1 45 -6 0 -13 -7 -16
-15z"/>
<path d="M1340 880 c0 -5 11 -10 25 -10 14 0 25 5 25 10 0 6 -11 10 -25 10
-14 0 -25 -4 -25 -10z"/>
<path d="M1328 829 c-19 -33 -24 -89 -8 -89 6 0 10 11 10 25 0 20 5 25 25 25
22 0 25 -3 19 -25 -3 -14 -2 -25 4 -25 16 0 23 60 9 89 -17 36 -39 37 -59 0z
m42 -10 c0 -5 -7 -9 -15 -9 -15 0 -20 12 -9 23 8 8 24 -1 24 -14z"/>
<path d="M1437 847 c-3 -8 -8 -36 -11 -63 -5 -43 -5 -45 5 -19 6 17 13 37 16
45 3 9 10 -3 17 -29 20 -77 38 -66 52 33 8 61 -11 56 -22 -7 l-7 -42 -11 44
c-12 46 -29 63 -39 38z"/>
<path d="M1198 844 c-5 -4 -8 -31 -8 -61 l0 -53 39 0 c22 0 43 5 46 10 4 6 -8
10 -29 10 l-35 0 -3 51 c-2 28 -6 47 -10 43z"/>
<path d="M1554 837 c17 -12 18 -18 8 -47 -14 -39 -15 -70 -4 -70 5 0 14 25 21
55 8 37 17 55 26 53 8 -2 15 2 17 7 2 6 -17 11 -42 13 -41 3 -43 2 -26 -11z"/>
<path d="M1100 828 l-35 -11 27 -10 c22 -9 28 -17 30 -51 2 -23 7 -39 13 -36
6 3 8 26 7 53 -3 38 -1 47 12 47 9 0 16 5 16 10 0 12 -24 12 -70 -2z"/>
<path d="M1634 778 c-9 -29 -17 -54 -16 -55 7 -10 19 3 28 30 23 67 25 77 15
77 -5 0 -17 -24 -27 -52z"/>
<path d="M1703 808 c-14 -19 -47 -98 -42 -101 2 -2 17 -8 33 -15 31 -14 56 -2
56 26 0 12 -3 13 -12 4 -14 -14 -48 -16 -48 -3 0 5 7 25 15 45 16 37 41 48 51
21 9 -21 24 -19 24 4 0 30 -58 44 -77 19z"/>
<path d="M1797 735 c-15 -25 -27 -52 -27 -61 0 -16 46 -37 66 -30 13 5 69 105
62 111 -11 9 -49 25 -60 25 -7 0 -25 -20 -41 -45z m57 19 c21 -8 20 -22 -4
-62 -17 -28 -23 -31 -40 -22 -20 11 -20 11 2 50 13 22 24 40 25 40 1 0 8 -3
17 -6z"/>
<path d="M2660 770 c0 -5 5 -10 10 -10 6 0 10 5 10 10 0 6 -4 10 -10 10 -5 0
-10 -4 -10 -10z"/>
<path d="M2656 741 c-4 -7 -5 -15 -2 -18 9 -9 19 4 14 18 -4 11 -6 11 -12 0z"/>
<path d="M2570 703 c0 -10 7 -29 15 -43 8 -14 19 -36 25 -50 9 -19 13 -21 20
-11 10 17 3 38 -22 63 -10 10 -18 27 -18 38 0 11 -4 20 -10 20 -5 0 -10 -8
-10 -17z"/>
<path d="M2738 643 c-20 -16 -44 -33 -53 -38 -14 -8 -19 -28 -22 -90 -6 -114
-8 -115 -53 -54 -51 69 -80 93 -157 130 -85 40 -112 37 -32 -3 47 -24 77 -49
112 -93 50 -61 91 -140 82 -155 -3 -5 0 -21 6 -37 16 -42 13 -192 -6 -237 -29
-68 -36 -67 264 -66 l269 1 -8 29 c-5 16 -11 34 -14 39 -17 27 85 91 146 91
22 0 48 10 48 20 0 4 -21 4 -47 -1 -105 -17 -313 -30 -331 -20 -14 9 -13 10
11 11 30 0 37 16 10 23 -16 4 -16 5 1 6 18 1 18 2 1 21 -10 11 -13 20 -7 20 7
0 12 5 12 10 0 6 -31 10 -72 10 -80 0 -78 15 2 26 58 7 83 14 76 21 -3 3 1 15
9 27 8 11 15 23 15 26 0 11 -64 4 -67 -7 -3 -7 -16 -13 -29 -13 -18 0 -23 -4
-18 -12 5 -9 2 -9 -9 1 -9 7 -17 25 -17 39 0 20 -3 23 -12 14 -11 -11 -48 -17
-48 -9 0 2 25 30 55 63 30 32 55 64 55 71 0 6 6 14 13 16 6 3 8 6 2 6 -5 1
-30 -17 -55 -39 -49 -43 -60 -48 -60 -25 0 8 -5 15 -12 15 -6 0 -1 11 12 25
27 28 19 46 -11 26 -34 -20 -34 -5 -1 31 34 35 35 46 4 29 -15 -8 -22 -8 -26
2 -4 8 -11 5 -22 -10 -15 -21 -54 -32 -54 -15 0 4 19 26 41 50 49 51 47 64 -3
25z"/>
<path d="M1257 616 c-3 -7 8 -28 25 -44 33 -35 31 -52 -6 -45 -13 3 -27 0 -30
-6 -5 -7 8 -11 38 -11 25 0 47 4 50 8 7 11 -31 72 -44 72 -5 0 -10 7 -10 16 0
12 7 14 30 9 19 -4 30 -3 30 4 0 16 -77 14 -83 -3z"/>
<path d="M1368 580 c-1 -22 -2 -48 -2 -57 -1 -13 9 -19 37 -24 43 -7 48 -2 53
54 2 23 6 48 9 55 2 6 0 12 -6 12 -11 0 -15 -10 -24 -63 -5 -32 -10 -38 -28
-35 -22 3 -24 16 -11 76 3 15 0 22 -11 22 -11 0 -15 -12 -17 -40z"/>
<path d="M1497 613 c-3 -5 -8 -34 -12 -65 l-7 -58 51 0 c32 0 50 4 46 10 -3 6
-22 10 -40 10 l-35 0 6 55 c6 50 2 67 -9 48z"/>
<path d="M1951 325 c-18 -25 -35 -45 -39 -45 -11 0 -32 -61 -26 -71 3 -5 27
-9 54 -9 45 0 50 -2 47 -21 -1 -12 4 -24 11 -26 6 -3 12 1 12 8 0 7 8 21 17
31 12 13 14 21 5 30 -7 7 -9 35 -5 79 6 68 6 69 -19 69 -18 0 -34 -12 -57 -45z
m40 -77 c-8 -20 -15 -25 -35 -21 -14 3 -26 8 -26 12 0 4 15 27 33 51 l32 45 3
-31 c2 -16 -1 -42 -7 -56z"/>
<path d="M1715 160 c3 -5 11 -10 16 -10 6 0 7 5 4 10 -3 6 -11 10 -16 10 -6 0
-7 -4 -4 -10z"/>
</g>
</svg>
